<mxfile host="app.diagrams.net" modified="2022-01-03T07:14:20.108Z" agent="5.0 (Windows NT 10.0; Win64; x64) AppleWebKit/537.36 (KHTML, like Gecko) Chrome/96.0.4664.110 Safari/537.36" etag="sOY0Q8HlhrMptssjiqoc" version="16.1.2" type="github">
  <diagram id="C5RBs43oDa-KdzZeNtuy" name="Page-1">
    <mxGraphModel dx="1422" dy="785" grid="1" gridSize="10" guides="1" tooltips="1" connect="1" arrows="1" fold="1" page="1" pageScale="1" pageWidth="827" pageHeight="1169" math="0" shadow="0">
      <root>
        <mxCell id="WIyWlLk6GJQsqaUBKTNV-0" />
        <mxCell id="WIyWlLk6GJQsqaUBKTNV-1" parent="WIyWlLk6GJQsqaUBKTNV-0" />
        <mxCell id="OP_vpP4uJdwcSCvm83ob-50" value="" style="edgeStyle=orthogonalEdgeStyle;rounded=0;orthogonalLoop=1;jettySize=auto;html=1;" edge="1" parent="WIyWlLk6GJQsqaUBKTNV-1" source="WIyWlLk6GJQsqaUBKTNV-3" target="OP_vpP4uJdwcSCvm83ob-4">
          <mxGeometry relative="1" as="geometry" />
        </mxCell>
        <mxCell id="WIyWlLk6GJQsqaUBKTNV-3" value="The user and computer should&lt;br/&gt;each get 2 random cards." style="rounded=1;whiteSpace=wrap;html=1;fontSize=12;glass=0;strokeWidth=1;shadow=0;" parent="WIyWlLk6GJQsqaUBKTNV-1" vertex="1">
          <mxGeometry x="237" y="190" width="182" height="50" as="geometry" />
        </mxCell>
        <mxCell id="WIyWlLk6GJQsqaUBKTNV-6" value="Does the user or&lt;br/&gt;computer have a blackjack?&lt;br/&gt;(ace + 10)&amp;nbsp;" style="rhombus;whiteSpace=wrap;html=1;shadow=0;fontFamily=Helvetica;fontSize=12;align=center;strokeWidth=1;spacing=6;spacingTop=-4;" parent="WIyWlLk6GJQsqaUBKTNV-1" vertex="1">
          <mxGeometry x="221" y="362" width="210" height="78" as="geometry" />
        </mxCell>
        <mxCell id="WIyWlLk6GJQsqaUBKTNV-7" value="Win" style="rounded=1;whiteSpace=wrap;html=1;fontSize=12;glass=0;strokeWidth=1;shadow=0;fillColor=#d5e8d4;strokeColor=#82b366;" parent="WIyWlLk6GJQsqaUBKTNV-1" vertex="1">
          <mxGeometry x="547" y="330" width="63" height="40" as="geometry" />
        </mxCell>
        <mxCell id="OP_vpP4uJdwcSCvm83ob-52" value="" style="edgeStyle=orthogonalEdgeStyle;rounded=0;orthogonalLoop=1;jettySize=auto;html=1;" edge="1" parent="WIyWlLk6GJQsqaUBKTNV-1" source="WIyWlLk6GJQsqaUBKTNV-10" target="OP_vpP4uJdwcSCvm83ob-51">
          <mxGeometry relative="1" as="geometry" />
        </mxCell>
        <mxCell id="WIyWlLk6GJQsqaUBKTNV-10" value="Is user&#39;s score&amp;nbsp;over 21?" style="rhombus;whiteSpace=wrap;html=1;shadow=0;fontFamily=Helvetica;fontSize=12;align=center;strokeWidth=1;spacing=6;spacingTop=-4;" parent="WIyWlLk6GJQsqaUBKTNV-1" vertex="1">
          <mxGeometry x="270" y="479" width="107" height="80" as="geometry" />
        </mxCell>
        <mxCell id="OP_vpP4uJdwcSCvm83ob-39" value="" style="edgeStyle=orthogonalEdgeStyle;rounded=0;orthogonalLoop=1;jettySize=auto;html=1;" edge="1" parent="WIyWlLk6GJQsqaUBKTNV-1" target="OP_vpP4uJdwcSCvm83ob-35">
          <mxGeometry relative="1" as="geometry">
            <mxPoint x="329" y="730" as="sourcePoint" />
            <Array as="points">
              <mxPoint x="329" y="740" />
              <mxPoint x="329" y="740" />
            </Array>
          </mxGeometry>
        </mxCell>
        <mxCell id="WIyWlLk6GJQsqaUBKTNV-11" value="PC plays, if score is less&lt;br&gt;&amp;nbsp;than 17, keep drawing cards." style="rounded=1;whiteSpace=wrap;html=1;fontSize=12;glass=0;strokeWidth=1;shadow=0;" parent="WIyWlLk6GJQsqaUBKTNV-1" vertex="1">
          <mxGeometry x="240" y="690" width="180" height="40" as="geometry" />
        </mxCell>
        <mxCell id="OP_vpP4uJdwcSCvm83ob-66" value="" style="edgeStyle=orthogonalEdgeStyle;rounded=0;orthogonalLoop=1;jettySize=auto;html=1;" edge="1" parent="WIyWlLk6GJQsqaUBKTNV-1" source="WIyWlLk6GJQsqaUBKTNV-12" target="OP_vpP4uJdwcSCvm83ob-65">
          <mxGeometry relative="1" as="geometry" />
        </mxCell>
        <mxCell id="WIyWlLk6GJQsqaUBKTNV-12" value="Draw another card" style="rounded=1;whiteSpace=wrap;html=1;fontSize=12;glass=0;strokeWidth=1;shadow=0;" parent="WIyWlLk6GJQsqaUBKTNV-1" vertex="1">
          <mxGeometry x="480" y="604.5" width="120" height="40" as="geometry" />
        </mxCell>
        <mxCell id="OP_vpP4uJdwcSCvm83ob-49" value="" style="edgeStyle=orthogonalEdgeStyle;rounded=0;orthogonalLoop=1;jettySize=auto;html=1;" edge="1" parent="WIyWlLk6GJQsqaUBKTNV-1" source="OP_vpP4uJdwcSCvm83ob-0" target="WIyWlLk6GJQsqaUBKTNV-3">
          <mxGeometry relative="1" as="geometry" />
        </mxCell>
        <mxCell id="OP_vpP4uJdwcSCvm83ob-0" value="Ask the user if s/he wants to play blackjack or not" style="rounded=1;whiteSpace=wrap;html=1;fontSize=12;glass=0;strokeWidth=1;shadow=0;" vertex="1" parent="WIyWlLk6GJQsqaUBKTNV-1">
          <mxGeometry x="239" y="110" width="179" height="40" as="geometry" />
        </mxCell>
        <mxCell id="OP_vpP4uJdwcSCvm83ob-3" value="Yes" style="text;html=1;align=center;verticalAlign=middle;resizable=0;points=[];autosize=1;strokeColor=none;fillColor=none;" vertex="1" parent="WIyWlLk6GJQsqaUBKTNV-1">
          <mxGeometry x="342" y="160" width="40" height="20" as="geometry" />
        </mxCell>
        <mxCell id="OP_vpP4uJdwcSCvm83ob-5" value="" style="edgeStyle=orthogonalEdgeStyle;rounded=0;orthogonalLoop=1;jettySize=auto;html=1;" edge="1" parent="WIyWlLk6GJQsqaUBKTNV-1" target="WIyWlLk6GJQsqaUBKTNV-6">
          <mxGeometry relative="1" as="geometry">
            <mxPoint x="338.5" y="314" as="sourcePoint" />
            <Array as="points">
              <mxPoint x="326" y="314" />
            </Array>
          </mxGeometry>
        </mxCell>
        <mxCell id="OP_vpP4uJdwcSCvm83ob-4" value="Add up the user&#39;s and the PC&#39;s scores" style="rounded=1;whiteSpace=wrap;html=1;fontSize=12;glass=0;strokeWidth=1;shadow=0;" vertex="1" parent="WIyWlLk6GJQsqaUBKTNV-1">
          <mxGeometry x="241" y="276" width="173" height="54" as="geometry" />
        </mxCell>
        <mxCell id="OP_vpP4uJdwcSCvm83ob-7" value="" style="edgeStyle=orthogonalEdgeStyle;rounded=0;orthogonalLoop=1;jettySize=auto;html=1;entryX=0;entryY=0.5;entryDx=0;entryDy=0;entryPerimeter=0;startArrow=none;" edge="1" parent="WIyWlLk6GJQsqaUBKTNV-1" target="OP_vpP4uJdwcSCvm83ob-8">
          <mxGeometry relative="1" as="geometry">
            <mxPoint x="430" y="370" as="sourcePoint" />
            <mxPoint x="510" y="380" as="targetPoint" />
            <Array as="points">
              <mxPoint x="430" y="410" />
            </Array>
          </mxGeometry>
        </mxCell>
        <mxCell id="OP_vpP4uJdwcSCvm83ob-8" value="Lose" style="rounded=1;whiteSpace=wrap;html=1;fontSize=12;glass=0;strokeWidth=1;shadow=0;fillColor=#f8cecc;strokeColor=#b85450;" vertex="1" parent="WIyWlLk6GJQsqaUBKTNV-1">
          <mxGeometry x="547" y="390" width="63" height="40" as="geometry" />
        </mxCell>
        <mxCell id="OP_vpP4uJdwcSCvm83ob-9" value="PC has blackjack" style="text;html=1;align=center;verticalAlign=middle;resizable=0;points=[];autosize=1;strokeColor=none;fillColor=none;" vertex="1" parent="WIyWlLk6GJQsqaUBKTNV-1">
          <mxGeometry x="431" y="413" width="110" height="20" as="geometry" />
        </mxCell>
        <mxCell id="OP_vpP4uJdwcSCvm83ob-17" value="User has blackjack" style="text;html=1;align=center;verticalAlign=middle;resizable=0;points=[];autosize=1;strokeColor=none;fillColor=none;" vertex="1" parent="WIyWlLk6GJQsqaUBKTNV-1">
          <mxGeometry x="421" y="330" width="120" height="20" as="geometry" />
        </mxCell>
        <mxCell id="OP_vpP4uJdwcSCvm83ob-18" value="" style="edgeStyle=elbowEdgeStyle;elbow=horizontal;endArrow=classic;html=1;rounded=0;entryX=0;entryY=0.5;entryDx=0;entryDy=0;" edge="1" parent="WIyWlLk6GJQsqaUBKTNV-1" source="WIyWlLk6GJQsqaUBKTNV-6" target="WIyWlLk6GJQsqaUBKTNV-7">
          <mxGeometry width="50" height="50" relative="1" as="geometry">
            <mxPoint x="440" y="362" as="sourcePoint" />
            <mxPoint x="490" y="312" as="targetPoint" />
            <Array as="points">
              <mxPoint x="430" y="380" />
              <mxPoint x="510" y="262" />
            </Array>
          </mxGeometry>
        </mxCell>
        <mxCell id="OP_vpP4uJdwcSCvm83ob-20" value="No" style="text;html=1;align=center;verticalAlign=middle;resizable=0;points=[];autosize=1;strokeColor=none;fillColor=none;" vertex="1" parent="WIyWlLk6GJQsqaUBKTNV-1">
          <mxGeometry x="335" y="450" width="30" height="20" as="geometry" />
        </mxCell>
        <mxCell id="OP_vpP4uJdwcSCvm83ob-21" value="" style="endArrow=classic;html=1;rounded=0;exitX=0.5;exitY=1;exitDx=0;exitDy=0;" edge="1" parent="WIyWlLk6GJQsqaUBKTNV-1" source="WIyWlLk6GJQsqaUBKTNV-6">
          <mxGeometry width="50" height="50" relative="1" as="geometry">
            <mxPoint x="390" y="550" as="sourcePoint" />
            <mxPoint x="326" y="480" as="targetPoint" />
          </mxGeometry>
        </mxCell>
        <mxCell id="OP_vpP4uJdwcSCvm83ob-22" value="Double down" style="text;html=1;align=center;verticalAlign=middle;resizable=0;points=[];autosize=1;strokeColor=none;fillColor=none;" vertex="1" parent="WIyWlLk6GJQsqaUBKTNV-1">
          <mxGeometry x="670" y="185" width="90" height="20" as="geometry" />
        </mxCell>
        <mxCell id="OP_vpP4uJdwcSCvm83ob-23" value="Hit" style="text;html=1;align=center;verticalAlign=middle;resizable=0;points=[];autosize=1;strokeColor=none;fillColor=none;" vertex="1" parent="WIyWlLk6GJQsqaUBKTNV-1">
          <mxGeometry x="700" y="140" width="30" height="20" as="geometry" />
        </mxCell>
        <mxCell id="OP_vpP4uJdwcSCvm83ob-24" value="Stand" style="text;html=1;align=center;verticalAlign=middle;resizable=0;points=[];autosize=1;strokeColor=none;fillColor=none;" vertex="1" parent="WIyWlLk6GJQsqaUBKTNV-1">
          <mxGeometry x="690" y="100" width="50" height="20" as="geometry" />
        </mxCell>
        <mxCell id="OP_vpP4uJdwcSCvm83ob-25" value="Split" style="text;html=1;align=center;verticalAlign=middle;resizable=0;points=[];autosize=1;strokeColor=none;fillColor=none;" vertex="1" parent="WIyWlLk6GJQsqaUBKTNV-1">
          <mxGeometry x="700" y="220" width="40" height="20" as="geometry" />
        </mxCell>
        <mxCell id="OP_vpP4uJdwcSCvm83ob-32" style="edgeStyle=orthogonalEdgeStyle;rounded=0;orthogonalLoop=1;jettySize=auto;html=1;exitX=0.5;exitY=1;exitDx=0;exitDy=0;" edge="1" parent="WIyWlLk6GJQsqaUBKTNV-1" source="OP_vpP4uJdwcSCvm83ob-27">
          <mxGeometry relative="1" as="geometry">
            <mxPoint x="328" y="690" as="targetPoint" />
          </mxGeometry>
        </mxCell>
        <mxCell id="OP_vpP4uJdwcSCvm83ob-64" value="" style="edgeStyle=orthogonalEdgeStyle;rounded=0;orthogonalLoop=1;jettySize=auto;html=1;" edge="1" parent="WIyWlLk6GJQsqaUBKTNV-1" source="OP_vpP4uJdwcSCvm83ob-27" target="WIyWlLk6GJQsqaUBKTNV-12">
          <mxGeometry relative="1" as="geometry" />
        </mxCell>
        <mxCell id="OP_vpP4uJdwcSCvm83ob-27" value="Ask the user if they want&lt;br/&gt;to get another card.&lt;br/&gt;" style="rhombus;whiteSpace=wrap;html=1;shadow=0;fontFamily=Helvetica;fontSize=12;align=center;strokeWidth=1;spacing=6;spacingTop=-4;" vertex="1" parent="WIyWlLk6GJQsqaUBKTNV-1">
          <mxGeometry x="230" y="585" width="190" height="79" as="geometry" />
        </mxCell>
        <mxCell id="OP_vpP4uJdwcSCvm83ob-34" value="Yes" style="edgeStyle=orthogonalEdgeStyle;rounded=0;html=1;jettySize=auto;orthogonalLoop=1;fontSize=11;endArrow=block;endFill=0;endSize=8;strokeWidth=1;shadow=0;labelBackgroundColor=none;" edge="1" parent="WIyWlLk6GJQsqaUBKTNV-1" source="OP_vpP4uJdwcSCvm83ob-35" target="OP_vpP4uJdwcSCvm83ob-36">
          <mxGeometry x="0.0222" y="15" relative="1" as="geometry">
            <mxPoint as="offset" />
          </mxGeometry>
        </mxCell>
        <mxCell id="OP_vpP4uJdwcSCvm83ob-74" value="" style="edgeStyle=orthogonalEdgeStyle;rounded=0;orthogonalLoop=1;jettySize=auto;html=1;" edge="1" parent="WIyWlLk6GJQsqaUBKTNV-1" source="OP_vpP4uJdwcSCvm83ob-35" target="OP_vpP4uJdwcSCvm83ob-37">
          <mxGeometry relative="1" as="geometry" />
        </mxCell>
        <mxCell id="OP_vpP4uJdwcSCvm83ob-35" value="Has PC gone&amp;nbsp;&lt;br&gt;over 21?" style="rhombus;whiteSpace=wrap;html=1;shadow=0;fontFamily=Helvetica;fontSize=12;align=center;strokeWidth=1;spacing=6;spacingTop=-4;" vertex="1" parent="WIyWlLk6GJQsqaUBKTNV-1">
          <mxGeometry x="244" y="770" width="170" height="70" as="geometry" />
        </mxCell>
        <mxCell id="OP_vpP4uJdwcSCvm83ob-36" value="Win" style="rounded=1;whiteSpace=wrap;html=1;fontSize=12;glass=0;strokeWidth=1;shadow=0;" vertex="1" parent="WIyWlLk6GJQsqaUBKTNV-1">
          <mxGeometry x="504" y="785" width="80" height="40" as="geometry" />
        </mxCell>
        <mxCell id="OP_vpP4uJdwcSCvm83ob-41" value="" style="edgeStyle=orthogonalEdgeStyle;rounded=0;orthogonalLoop=1;jettySize=auto;html=1;" edge="1" parent="WIyWlLk6GJQsqaUBKTNV-1" source="OP_vpP4uJdwcSCvm83ob-37" target="OP_vpP4uJdwcSCvm83ob-40">
          <mxGeometry relative="1" as="geometry" />
        </mxCell>
        <mxCell id="OP_vpP4uJdwcSCvm83ob-43" value="" style="edgeStyle=orthogonalEdgeStyle;rounded=0;orthogonalLoop=1;jettySize=auto;html=1;" edge="1" parent="WIyWlLk6GJQsqaUBKTNV-1" source="OP_vpP4uJdwcSCvm83ob-37" target="OP_vpP4uJdwcSCvm83ob-42">
          <mxGeometry relative="1" as="geometry" />
        </mxCell>
        <mxCell id="OP_vpP4uJdwcSCvm83ob-45" value="" style="edgeStyle=orthogonalEdgeStyle;rounded=0;orthogonalLoop=1;jettySize=auto;html=1;" edge="1" parent="WIyWlLk6GJQsqaUBKTNV-1" source="OP_vpP4uJdwcSCvm83ob-37" target="OP_vpP4uJdwcSCvm83ob-44">
          <mxGeometry relative="1" as="geometry" />
        </mxCell>
        <mxCell id="OP_vpP4uJdwcSCvm83ob-37" value="Compare user score with&lt;br&gt;PC score to see if user&lt;br&gt;score is higher?" style="rhombus;whiteSpace=wrap;html=1;shadow=0;fontFamily=Helvetica;fontSize=12;align=center;strokeWidth=1;spacing=6;spacingTop=-4;" vertex="1" parent="WIyWlLk6GJQsqaUBKTNV-1">
          <mxGeometry x="204" y="887" width="250" height="84" as="geometry" />
        </mxCell>
        <mxCell id="OP_vpP4uJdwcSCvm83ob-40" value="Lose" style="rounded=1;whiteSpace=wrap;html=1;shadow=0;strokeWidth=1;spacing=6;spacingTop=-4;fillColor=#f8cecc;strokeColor=#b85450;" vertex="1" parent="WIyWlLk6GJQsqaUBKTNV-1">
          <mxGeometry x="554.25" y="899" width="80" height="60" as="geometry" />
        </mxCell>
        <mxCell id="OP_vpP4uJdwcSCvm83ob-42" value="Win" style="rounded=1;whiteSpace=wrap;html=1;shadow=0;strokeWidth=1;spacing=6;spacingTop=-4;fillColor=#d5e8d4;strokeColor=#82b366;" vertex="1" parent="WIyWlLk6GJQsqaUBKTNV-1">
          <mxGeometry x="30" y="899" width="80" height="60" as="geometry" />
        </mxCell>
        <mxCell id="OP_vpP4uJdwcSCvm83ob-44" value="Push" style="ellipse;whiteSpace=wrap;html=1;shadow=0;strokeWidth=1;spacing=6;spacingTop=-4;fillColor=#fff2cc;strokeColor=#d6b656;" vertex="1" parent="WIyWlLk6GJQsqaUBKTNV-1">
          <mxGeometry x="269" y="1011" width="120" height="60" as="geometry" />
        </mxCell>
        <mxCell id="OP_vpP4uJdwcSCvm83ob-55" value="" style="edgeStyle=orthogonalEdgeStyle;rounded=0;orthogonalLoop=1;jettySize=auto;html=1;" edge="1" parent="WIyWlLk6GJQsqaUBKTNV-1" source="OP_vpP4uJdwcSCvm83ob-51" target="OP_vpP4uJdwcSCvm83ob-54">
          <mxGeometry relative="1" as="geometry" />
        </mxCell>
        <mxCell id="OP_vpP4uJdwcSCvm83ob-51" value="&lt;span&gt;Do they have an&lt;/span&gt;&lt;br&gt;&lt;span&gt;&quot;Ace&quot;?&lt;/span&gt;" style="html=1;whiteSpace=wrap;aspect=fixed;shape=isoRectangle;" vertex="1" parent="WIyWlLk6GJQsqaUBKTNV-1">
          <mxGeometry x="431" y="484" width="116.67" height="70" as="geometry" />
        </mxCell>
        <mxCell id="OP_vpP4uJdwcSCvm83ob-53" value="Yes" style="text;html=1;align=center;verticalAlign=middle;resizable=0;points=[];autosize=1;strokeColor=none;fillColor=none;" vertex="1" parent="WIyWlLk6GJQsqaUBKTNV-1">
          <mxGeometry x="380" y="500" width="40" height="20" as="geometry" />
        </mxCell>
        <mxCell id="OP_vpP4uJdwcSCvm83ob-54" value="If the ace counts&lt;br/&gt;as a 1 instead of 11, are they&lt;br/&gt;still over 21?&amp;nbsp;" style="html=1;whiteSpace=wrap;aspect=fixed;shape=isoRectangle;" vertex="1" parent="WIyWlLk6GJQsqaUBKTNV-1">
          <mxGeometry x="600" y="465" width="180" height="108" as="geometry" />
        </mxCell>
        <mxCell id="OP_vpP4uJdwcSCvm83ob-56" value="Yes" style="text;html=1;align=center;verticalAlign=middle;resizable=0;points=[];autosize=1;strokeColor=none;fillColor=none;" vertex="1" parent="WIyWlLk6GJQsqaUBKTNV-1">
          <mxGeometry x="560" y="500" width="40" height="20" as="geometry" />
        </mxCell>
        <mxCell id="OP_vpP4uJdwcSCvm83ob-57" value="Lose" style="rounded=1;whiteSpace=wrap;html=1;fontSize=12;glass=0;strokeWidth=1;shadow=0;fillColor=#f8cecc;strokeColor=#b85450;arcSize=50;" vertex="1" parent="WIyWlLk6GJQsqaUBKTNV-1">
          <mxGeometry x="554.25" y="450" width="51.5" height="16" as="geometry" />
        </mxCell>
        <mxCell id="OP_vpP4uJdwcSCvm83ob-60" value="" style="edgeStyle=elbowEdgeStyle;elbow=horizontal;endArrow=classic;html=1;rounded=0;entryX=1;entryY=0.5;entryDx=0;entryDy=0;" edge="1" parent="WIyWlLk6GJQsqaUBKTNV-1" target="OP_vpP4uJdwcSCvm83ob-57">
          <mxGeometry width="50" height="50" relative="1" as="geometry">
            <mxPoint x="690" y="466" as="sourcePoint" />
            <mxPoint x="740" y="416" as="targetPoint" />
          </mxGeometry>
        </mxCell>
        <mxCell id="OP_vpP4uJdwcSCvm83ob-61" value="Yes" style="edgeLabel;html=1;align=center;verticalAlign=middle;resizable=0;points=[];" vertex="1" connectable="0" parent="OP_vpP4uJdwcSCvm83ob-60">
          <mxGeometry x="-0.6531" y="-7" relative="1" as="geometry">
            <mxPoint x="-4" y="-9" as="offset" />
          </mxGeometry>
        </mxCell>
        <mxCell id="OP_vpP4uJdwcSCvm83ob-62" value="" style="edgeStyle=elbowEdgeStyle;elbow=vertical;endArrow=classic;html=1;rounded=0;entryX=0;entryY=1;entryDx=0;entryDy=0;" edge="1" parent="WIyWlLk6GJQsqaUBKTNV-1" target="OP_vpP4uJdwcSCvm83ob-57">
          <mxGeometry width="50" height="50" relative="1" as="geometry">
            <mxPoint x="490" y="484" as="sourcePoint" />
            <mxPoint x="515.75" y="444" as="targetPoint" />
          </mxGeometry>
        </mxCell>
        <mxCell id="OP_vpP4uJdwcSCvm83ob-63" value="No" style="text;html=1;align=center;verticalAlign=middle;resizable=0;points=[];autosize=1;strokeColor=none;fillColor=none;" vertex="1" parent="WIyWlLk6GJQsqaUBKTNV-1">
          <mxGeometry x="511" y="459" width="30" height="20" as="geometry" />
        </mxCell>
        <mxCell id="OP_vpP4uJdwcSCvm83ob-68" value="" style="edgeStyle=orthogonalEdgeStyle;rounded=0;orthogonalLoop=1;jettySize=auto;html=1;" edge="1" parent="WIyWlLk6GJQsqaUBKTNV-1" source="OP_vpP4uJdwcSCvm83ob-65" target="OP_vpP4uJdwcSCvm83ob-67">
          <mxGeometry relative="1" as="geometry">
            <Array as="points">
              <mxPoint x="800" y="303" />
            </Array>
          </mxGeometry>
        </mxCell>
        <mxCell id="OP_vpP4uJdwcSCvm83ob-65" value="" style="shape=waypoint;sketch=0;size=6;pointerEvents=1;points=[];fillColor=default;resizable=0;rotatable=0;perimeter=centerPerimeter;snapToPoint=1;rounded=1;glass=0;strokeWidth=1;shadow=0;" vertex="1" parent="WIyWlLk6GJQsqaUBKTNV-1">
          <mxGeometry x="780" y="290" width="40" height="40" as="geometry" />
        </mxCell>
        <mxCell id="OP_vpP4uJdwcSCvm83ob-67" value="" style="shape=waypoint;sketch=0;size=6;pointerEvents=1;points=[];fillColor=default;resizable=0;rotatable=0;perimeter=centerPerimeter;snapToPoint=1;rounded=1;glass=0;strokeWidth=1;shadow=0;" vertex="1" parent="WIyWlLk6GJQsqaUBKTNV-1">
          <mxGeometry x="394" y="283" width="40" height="40" as="geometry" />
        </mxCell>
        <mxCell id="OP_vpP4uJdwcSCvm83ob-69" value="Yes" style="text;html=1;align=center;verticalAlign=middle;resizable=0;points=[];autosize=1;strokeColor=none;fillColor=none;" vertex="1" parent="WIyWlLk6GJQsqaUBKTNV-1">
          <mxGeometry x="440" y="600" width="40" height="20" as="geometry" />
        </mxCell>
        <mxCell id="OP_vpP4uJdwcSCvm83ob-70" value="No" style="text;html=1;align=center;verticalAlign=middle;resizable=0;points=[];autosize=1;strokeColor=none;fillColor=none;" vertex="1" parent="WIyWlLk6GJQsqaUBKTNV-1">
          <mxGeometry x="335" y="670" width="30" height="20" as="geometry" />
        </mxCell>
        <mxCell id="OP_vpP4uJdwcSCvm83ob-75" value="" style="endArrow=classic;html=1;rounded=0;exitX=0.5;exitY=1;exitDx=0;exitDy=0;entryX=0.489;entryY=0.089;entryDx=0;entryDy=0;entryPerimeter=0;" edge="1" parent="WIyWlLk6GJQsqaUBKTNV-1" source="WIyWlLk6GJQsqaUBKTNV-10" target="OP_vpP4uJdwcSCvm83ob-27">
          <mxGeometry width="50" height="50" relative="1" as="geometry">
            <mxPoint x="390" y="690" as="sourcePoint" />
            <mxPoint x="440" y="640" as="targetPoint" />
          </mxGeometry>
        </mxCell>
        <mxCell id="OP_vpP4uJdwcSCvm83ob-79" value="" style="edgeStyle=elbowEdgeStyle;elbow=horizontal;endArrow=classic;html=1;rounded=0;exitX=0.5;exitY=0.972;exitDx=0;exitDy=0;exitPerimeter=0;entryX=0.642;entryY=0.114;entryDx=0;entryDy=0;entryPerimeter=0;" edge="1" parent="WIyWlLk6GJQsqaUBKTNV-1" source="OP_vpP4uJdwcSCvm83ob-54" target="OP_vpP4uJdwcSCvm83ob-27">
          <mxGeometry width="50" height="50" relative="1" as="geometry">
            <mxPoint x="390" y="490" as="sourcePoint" />
            <mxPoint x="440" y="440" as="targetPoint" />
          </mxGeometry>
        </mxCell>
        <mxCell id="OP_vpP4uJdwcSCvm83ob-81" value="No&amp;nbsp;" style="edgeLabel;html=1;align=center;verticalAlign=middle;resizable=0;points=[];" vertex="1" connectable="0" parent="OP_vpP4uJdwcSCvm83ob-79">
          <mxGeometry x="-0.7293" y="-7" relative="1" as="geometry">
            <mxPoint as="offset" />
          </mxGeometry>
        </mxCell>
        <mxCell id="OP_vpP4uJdwcSCvm83ob-82" value="No" style="text;html=1;align=center;verticalAlign=middle;resizable=0;points=[];autosize=1;strokeColor=none;fillColor=none;" vertex="1" parent="WIyWlLk6GJQsqaUBKTNV-1">
          <mxGeometry x="285" y="560" width="30" height="20" as="geometry" />
        </mxCell>
        <mxCell id="OP_vpP4uJdwcSCvm83ob-83" value="No" style="text;html=1;align=center;verticalAlign=middle;resizable=0;points=[];autosize=1;strokeColor=none;fillColor=none;" vertex="1" parent="WIyWlLk6GJQsqaUBKTNV-1">
          <mxGeometry x="335" y="850" width="30" height="20" as="geometry" />
        </mxCell>
        <mxCell id="OP_vpP4uJdwcSCvm83ob-84" value="Lower user score" style="text;html=1;align=center;verticalAlign=middle;resizable=0;points=[];autosize=1;strokeColor=none;fillColor=none;" vertex="1" parent="WIyWlLk6GJQsqaUBKTNV-1">
          <mxGeometry x="435" y="900" width="110" height="20" as="geometry" />
        </mxCell>
        <mxCell id="OP_vpP4uJdwcSCvm83ob-86" value="Higher user score" style="text;html=1;align=center;verticalAlign=middle;resizable=0;points=[];autosize=1;strokeColor=none;fillColor=none;" vertex="1" parent="WIyWlLk6GJQsqaUBKTNV-1">
          <mxGeometry x="110" y="910" width="110" height="20" as="geometry" />
        </mxCell>
        <mxCell id="OP_vpP4uJdwcSCvm83ob-87" value="Same score" style="text;html=1;align=center;verticalAlign=middle;resizable=0;points=[];autosize=1;strokeColor=none;fillColor=none;" vertex="1" parent="WIyWlLk6GJQsqaUBKTNV-1">
          <mxGeometry x="335" y="980" width="80" height="20" as="geometry" />
        </mxCell>
      </root>
    </mxGraphModel>
  </diagram>
</mxfile>
